
<svg height="383" viewBox="0 0 1728 383" fill="none" xmlns="http://www.w3.org/2000/svg">
    <path d="M951.5 222.5L811.515 362.485C809.264 364.736 806.212 366 803.029 366H657.5" stroke="#D5DBEA"/>
    <path d="M625.5 366H771.029C774.212 366 777.264 364.736 779.515 362.485L915.985 226.015C918.236 223.764 921.288 222.5 924.471 222.5H1031.5" stroke="#D5DBEA"/>
    <path d="M2176 1H1548.78C1543.48 1 1538.39 3.10713 1534.64 6.85786L1354.86 186.642C1351.11 190.393 1346.02 192.5 1340.72 192.5H973.284C967.98 192.5 962.893 194.607 959.142 198.358L780.858 376.642C777.107 380.393 772.02 382.5 766.716 382.5H702.284C696.98 382.5 691.893 380.393 688.142 376.642L374.858 63.3579C371.107 59.6071 366.02 57.5 360.716 57.5H-414" stroke="#D5DBEA"/>
    <g filter="url(#filter0_d_1_38)" class="translate-left">
    <rect x="342" y="31" width="60" height="60" rx="30" fill="white" shape-rendering="crispEdges"/>
    <path d="M371.734 49.4238L381.663 55.1561V66.6206L371.734 72.3529L361.805 66.6206V55.1561L371.734 49.4238Z" fill="url(#paint0_linear_1_38)"/>
    <path d="M371.734 60.8882L381.663 55.1582V66.6182L371.734 72.3644L371.734 60.8882Z" fill="url(#paint1_linear_1_38)"/>
    <path d="M371.735 67.1934L377.196 64.0406L377.196 57.7351L371.735 54.5824L366.274 57.7351L366.274 64.0406L371.735 67.1934Z" fill="url(#paint2_linear_1_38)"/>
    <path fill-rule="evenodd" clip-rule="evenodd" d="M371.733 43.0547L387.178 51.9714V69.8049L371.733 78.7217L356.289 69.8049V51.9714L371.733 43.0547ZM356.845 52.2922V69.4842L371.733 78.0802L386.622 69.4842V52.2922L371.733 43.6962L356.845 52.2922Z" fill="#BEDCFF"/>
    <ellipse cx="371.739" cy="43.2763" rx="1.71968" ry="1.71968" fill="#3290FF"/>
    <ellipse cx="371.739" cy="78.3818" rx="1.71968" ry="1.71968" fill="#3290FF"/>
    <ellipse cx="356.833" cy="52.1591" rx="1.71968" ry="1.71968" fill="#3290FF"/>
    <circle cx="386.638" cy="52.1591" r="1.71968" fill="#3290FF"/>
    <ellipse cx="356.833" cy="69.499" rx="1.71968" ry="1.71968" fill="#3290FF"/>
    <circle cx="386.638" cy="69.499" r="1.71968" fill="#3290FF"/>
    <rect x="342.5" y="31.5" width="59" height="59" rx="29.5" stroke="#2B61DF" shape-rendering="crispEdges"/>
    </g>
    <g filter="url(#filter1_d_1_38)" class="translate-up">
    <rect x="1449" y="31" width="60" height="60" rx="30" fill="white" shape-rendering="crispEdges"/>
    <path d="M1494.55 51.7697C1495.29 51.3385 1496.22 51.8728 1496.22 52.73V67.5091C1496.22 68.1013 1495.91 68.649 1495.4 68.9479L1477.81 79.2298C1477.07 79.6628 1476.14 79.1286 1476.14 78.2706V64.4072C1476.14 63.2207 1476.77 62.1236 1477.79 61.5266L1494.55 51.7697Z" fill="url(#paint3_linear_1_38)" fill-opacity="0.91"/>
    <path opacity="0.4" d="M1487.46 47.467C1488.2 47.0358 1489.13 47.5701 1489.13 48.4272V62.21C1489.13 63.3925 1488.51 64.4865 1487.49 65.0849L1470.72 74.9225C1469.98 75.3572 1469.05 74.823 1469.05 73.9642V60.1045C1469.05 58.9179 1469.68 57.8208 1470.7 57.2238L1487.46 47.467Z" fill="url(#paint4_linear_1_38)" fill-opacity="0.91"/>
    <path opacity="0.4" d="M1480.37 43.1623C1481.11 42.7311 1482.04 43.2654 1482.04 44.1225V57.9053C1482.04 59.0878 1481.42 60.1818 1480.4 60.7802L1463.63 70.6178C1462.89 71.0525 1461.96 70.5183 1461.96 69.6595V55.7998C1461.96 54.6133 1462.59 53.5161 1463.61 52.9191L1480.37 43.1623Z" fill="url(#paint5_linear_1_38)" fill-opacity="0.91"/>
    <rect x="1449.5" y="31.5" width="59" height="59" rx="29.5" stroke="#0FA9CD" shape-rendering="crispEdges"/>
    </g>
    <g filter="url(#filter2_d_1_38)">
    <rect x="882" y="260" width="60" height="60" rx="30" fill="white" shape-rendering="crispEdges"/>
    <path d="M917.732 289.556L914.26 292.925C913.036 294.122 912.467 295.793 912.752 297.463L913.179 300.108C913.748 303.727 918.272 305.175 920.919 302.586L930.423 293.287C931.647 292.09 932.216 290.419 931.931 288.749L930.395 279.032C930.281 278.364 929.456 278.085 928.943 278.559L921.317 286.02" fill="url(#paint6_linear_1_38)"/>
    <path d="M922.935 297.268L900.113 287.941C901.707 293.203 904.638 297.992 908.593 301.862L909.475 302.725C912.577 305.76 917.642 305.76 920.744 302.725L927.944 295.681C925.553 298.02 922.992 297.268 922.935 297.268Z" fill="url(#paint7_linear_1_38)"/>
    <path d="M909.732 287.078L895.048 301.416C894.565 301.917 893.711 301.639 893.597 300.971L892.06 291.254C891.804 289.583 892.373 287.913 893.569 286.716L903.073 277.417C905.719 274.827 910.244 276.275 910.813 279.895L911.24 282.512C911.496 284.182 910.955 285.881 909.732 287.078Z" fill="url(#paint8_linear_1_38)"/>
    <path d="M915.366 278.141L914.484 277.278C911.382 274.243 906.345 274.243 903.244 277.278L896.016 284.322C898.434 281.955 901.024 282.735 901.024 282.735L917.699 289.556L921.313 286.02C919.748 283.125 917.756 280.48 915.366 278.141Z" fill="url(#paint9_linear_1_38)"/>
    <rect x="882.5" y="260.5" width="59" height="59" rx="29.5" stroke="#55D183" shape-rendering="crispEdges"/>
    </g>
    <g filter="url(#filter3_d_1_38)">
    <rect x="786" y="260" width="60" height="60" rx="30" fill="white" shape-rendering="crispEdges"/>
    <path d="M810.117 299.966C810.857 300.402 811.791 299.867 811.791 299.008L811.791 287.126C811.791 286.536 811.479 285.99 810.971 285.69L802.117 280.465C801.377 280.028 800.441 280.562 800.441 281.422L800.441 294.279L810.117 299.966Z" fill="#FFCD49"/>
    <path opacity="0.8" d="M800.442 294.297L800.442 281.372C800.442 280.78 800.756 280.232 801.267 279.933L815.641 271.53C816.381 271.097 817.312 271.631 817.312 272.489L817.312 282.558C817.312 283.745 816.682 284.842 815.656 285.439L800.442 294.297Z" fill="url(#paint10_linear_1_38)"/>
    <path d="M821.055 279.153C820.314 278.718 819.381 279.252 819.381 280.111L819.381 291.993C819.381 292.583 819.693 293.129 820.201 293.429L829.055 298.654C829.795 299.092 830.73 298.558 830.73 297.698L830.73 284.84L821.055 279.153Z" fill="#FFCD49"/>
    <path opacity="0.8" d="M830.73 284.822L830.73 297.747C830.73 298.339 830.416 298.887 829.905 299.186L815.531 307.589C814.791 308.022 813.859 307.488 813.859 306.63L813.859 296.561C813.859 295.374 814.49 294.277 815.516 293.68L830.73 284.822Z" fill="url(#paint11_linear_1_38)"/>
    <rect x="786.5" y="260.5" width="59" height="59" rx="29.5" stroke="#FAAE31" shape-rendering="crispEdges"/>
    </g>
    <g>
        <rect x="829.438" y="255.438" width="69.125" height="69.125" rx="34.5625" fill="white"/>
        <path d="M853.133 291.601C853.133 292.137 852.803 292.618 852.302 292.811L845.512 295.425V280.753C845.512 279.597 846.128 278.529 847.128 277.949L863.226 268.623L864.142 274L853.133 282.542V291.601Z" fill="url(#paint12_linear_1_38)"/>
        <path d="M853.086 275.374C853.085 277.513 853.135 283.353 853.135 283.353L864.778 276.308V270.81C864.778 269.285 863.104 268.354 861.808 269.158L854.399 273.755C853.471 274.268 853.086 274.56 853.086 275.374Z" fill="url(#paint13_linear_1_38)"/>
        <path d="M871.498 299.338C871.966 299.078 872.547 299.134 872.958 299.478L878.538 304.148L865.708 311.265C864.697 311.825 863.464 311.805 862.472 311.211L846.508 301.657L850.765 298.248L863.575 303.733L871.498 299.338Z" fill="url(#paint14_linear_1_38)"/>
        <path d="M857.335 307.25C859.205 306.213 864.288 303.337 864.288 303.337L851.849 295.999L846.933 298.726C845.607 299.461 845.596 301.364 846.913 302.115L855.282 306.887C856.181 307.45 856.623 307.645 857.335 307.25Z" fill="url(#paint15_linear_1_38)"/>
        <path d="M867.652 279.001C867.184 278.739 866.926 278.217 867.001 277.686L868.031 270.482L880.839 277.638C881.849 278.202 882.481 279.261 882.499 280.417L882.79 299.019L877.649 297.197L875.561 283.419L867.652 279.001Z" fill="url(#paint16_linear_1_38)"/>
        <path d="M881.847 286.873C879.981 285.829 874.857 283.024 874.857 283.024L875.175 297.463L880.082 300.205C881.406 300.945 883.03 299.952 882.974 298.436L882.62 288.809C882.625 287.748 882.558 287.27 881.847 286.873Z" fill="url(#paint17_linear_1_38)"/>
        <path d="M864.086 297.564L864.066 290.192L870.479 286.491L870.5 293.86L864.086 297.564Z" fill="#7D95DD"/>
        <path d="M864.079 297.564L857.708 293.859L857.682 286.489L864.06 290.192L864.079 297.564Z" fill="#E7EAFF"/>
        <path d="M864.063 290.192L857.686 286.489L864.104 282.787L870.475 286.491L864.063 290.192Z" fill="#B7D6FF"/>
        <rect x="829.438" y="255.438" width="69.125" height="69.125" rx="34.5625" stroke="#4A6CD3" stroke-width="0.875"/>
        </g>
    <defs>
    <filter id="filter0_d_1_38" x="335" y="27" width="74" height="74" filterUnits="userSpaceOnUse" color-interpolation-filters="sRGB">
    <feFlood flood-opacity="0" result="BackgroundImageFix"/>
    <feColorMatrix in="SourceAlpha" type="matrix" values="0 0 0 0 0 0 0 0 0 0 0 0 0 0 0 0 0 0 127 0" result="hardAlpha"/>
    <feOffset dy="3"/>
    <feGaussianBlur stdDeviation="3.5"/>
    <feComposite in2="hardAlpha" operator="out"/>
    <feColorMatrix type="matrix" values="0 0 0 0 0.0389804 0 0 0 0 0.0352941 0 0 0 0 0.219608 0 0 0 0.06 0"/>
    <feBlend mode="normal" in2="BackgroundImageFix" result="effect1_dropShadow_1_38"/>
    <feBlend mode="normal" in="SourceGraphic" in2="effect1_dropShadow_1_38" result="shape"/>
    </filter>
    <filter id="filter1_d_1_38" x="1442" y="27" width="74" height="74" filterUnits="userSpaceOnUse" color-interpolation-filters="sRGB">
    <feFlood flood-opacity="0" result="BackgroundImageFix"/>
    <feColorMatrix in="SourceAlpha" type="matrix" values="0 0 0 0 0 0 0 0 0 0 0 0 0 0 0 0 0 0 127 0" result="hardAlpha"/>
    <feOffset dy="3"/>
    <feGaussianBlur stdDeviation="3.5"/>
    <feComposite in2="hardAlpha" operator="out"/>
    <feColorMatrix type="matrix" values="0 0 0 0 0.0389804 0 0 0 0 0.0352941 0 0 0 0 0.219608 0 0 0 0.06 0"/>
    <feBlend mode="normal" in2="BackgroundImageFix" result="effect1_dropShadow_1_38"/>
    <feBlend mode="normal" in="SourceGraphic" in2="effect1_dropShadow_1_38" result="shape"/>
    </filter>
    <filter id="filter2_d_1_38" x="875" y="256" width="74" height="74" filterUnits="userSpaceOnUse" color-interpolation-filters="sRGB">
    <feFlood flood-opacity="0" result="BackgroundImageFix"/>
    <feColorMatrix in="SourceAlpha" type="matrix" values="0 0 0 0 0 0 0 0 0 0 0 0 0 0 0 0 0 0 127 0" result="hardAlpha"/>
    <feOffset dy="3"/>
    <feGaussianBlur stdDeviation="3.5"/>
    <feComposite in2="hardAlpha" operator="out"/>
    <feColorMatrix type="matrix" values="0 0 0 0 0.0389804 0 0 0 0 0.0352941 0 0 0 0 0.219608 0 0 0 0.06 0"/>
    <feBlend mode="normal" in2="BackgroundImageFix" result="effect1_dropShadow_1_38"/>
    <feBlend mode="normal" in="SourceGraphic" in2="effect1_dropShadow_1_38" result="shape"/>
    </filter>
    <filter id="filter3_d_1_38" x="779" y="256" width="74" height="74" filterUnits="userSpaceOnUse" color-interpolation-filters="sRGB">
    <feFlood flood-opacity="0" result="BackgroundImageFix"/>
    <feColorMatrix in="SourceAlpha" type="matrix" values="0 0 0 0 0 0 0 0 0 0 0 0 0 0 0 0 0 0 127 0" result="hardAlpha"/>
    <feOffset dy="3"/>
    <feGaussianBlur stdDeviation="3.5"/>
    <feComposite in2="hardAlpha" operator="out"/>
    <feColorMatrix type="matrix" values="0 0 0 0 0.0389804 0 0 0 0 0.0352941 0 0 0 0 0.219608 0 0 0 0.06 0"/>
    <feBlend mode="normal" in2="BackgroundImageFix" result="effect1_dropShadow_1_38"/>
    <feBlend mode="normal" in="SourceGraphic" in2="effect1_dropShadow_1_38" result="shape"/>
    </filter>
    <linearGradient id="paint0_linear_1_38" x1="371.714" y1="49.3687" x2="373.371" y2="72.5529" gradientUnits="userSpaceOnUse">
    <stop stop-color="#3099FF"/>
    <stop offset="1" stop-color="#3D5CFF"/>
    </linearGradient>
    <linearGradient id="paint1_linear_1_38" x1="372.832" y1="63.7764" x2="376.699" y2="72.3644" gradientUnits="userSpaceOnUse">
    <stop stop-color="#003FD0"/>
    <stop offset="1" stop-color="#2A60DD" stop-opacity="0"/>
    </linearGradient>
    <linearGradient id="paint2_linear_1_38" x1="369.69" y1="56.2761" x2="369.69" y2="67.1934" gradientUnits="userSpaceOnUse">
    <stop stop-color="#2CB2FF" stop-opacity="0"/>
    <stop offset="1" stop-color="#1FAEFF"/>
    </linearGradient>
    <linearGradient id="paint3_linear_1_38" x1="1472.05" y1="86.2774" x2="1501.39" y2="50.7973" gradientUnits="userSpaceOnUse">
    <stop stop-color="#0295C9"/>
    <stop offset="1" stop-color="#0CD2E1"/>
    </linearGradient>
    <linearGradient id="paint4_linear_1_38" x1="1485.94" y1="66.8342" x2="1485.39" y2="47.9453" gradientUnits="userSpaceOnUse">
    <stop stop-color="#00A1D3"/>
    <stop offset="1" stop-color="#00DBEC"/>
    </linearGradient>
    <linearGradient id="paint5_linear_1_38" x1="1478.85" y1="62.5296" x2="1478.3" y2="43.6407" gradientUnits="userSpaceOnUse">
    <stop stop-color="#00A1D3"/>
    <stop offset="1" stop-color="#00DBEC"/>
    </linearGradient>
    <linearGradient id="paint6_linear_1_38" x1="929.469" y1="278.198" x2="914.124" y2="294.415" gradientUnits="userSpaceOnUse">
    <stop stop-color="#C8FCD7"/>
    <stop offset="1" stop-color="#7FEFA5"/>
    </linearGradient>
    <linearGradient id="paint7_linear_1_38" x1="906.657" y1="290.595" x2="926.987" y2="296.86" gradientUnits="userSpaceOnUse">
    <stop stop-color="#1BB172"/>
    <stop offset="1" stop-color="#88ED92"/>
    </linearGradient>
    <linearGradient id="paint8_linear_1_38" x1="909.698" y1="286.132" x2="894.318" y2="301.345" gradientUnits="userSpaceOnUse">
    <stop stop-color="#7FEFA5"/>
    <stop offset="1" stop-color="#C8FCD7"/>
    </linearGradient>
    <linearGradient id="paint9_linear_1_38" x1="896.521" y1="283.653" x2="917.748" y2="289.335" gradientUnits="userSpaceOnUse">
    <stop stop-color="#88ED92"/>
    <stop offset="1" stop-color="#1BB172"/>
    </linearGradient>
    <linearGradient id="paint10_linear_1_38" x1="800.442" y1="295.257" x2="817.312" y2="272.41" gradientUnits="userSpaceOnUse">
    <stop stop-color="#FB9131"/>
    <stop offset="1" stop-color="#FBC734"/>
    </linearGradient>
    <linearGradient id="paint11_linear_1_38" x1="830.73" y1="283.862" x2="813.859" y2="306.709" gradientUnits="userSpaceOnUse">
    <stop stop-color="#FB9131"/>
    <stop offset="1" stop-color="#FBC734"/>
    </linearGradient>
    <linearGradient id="paint12_linear_1_38" x1="854.827" y1="268.623" x2="854.827" y2="294.625" gradientUnits="userSpaceOnUse">
    <stop stop-color="#E9EAFF"/>
    <stop offset="1" stop-color="#BADBFF"/>
    </linearGradient>
    <linearGradient id="paint13_linear_1_38" x1="860.937" y1="265.354" x2="856.568" y2="282.553" gradientUnits="userSpaceOnUse">
    <stop stop-color="#E9EAFF"/>
    <stop offset="1" stop-color="#8DA5E5"/>
    </linearGradient>
    <linearGradient id="paint14_linear_1_38" x1="850.582" y1="309.002" x2="873.32" y2="296.39" gradientUnits="userSpaceOnUse">
    <stop stop-color="#E9EAFF"/>
    <stop offset="1" stop-color="#BADBFF"/>
    </linearGradient>
    <linearGradient id="paint15_linear_1_38" x1="844.765" y1="305.245" x2="861.924" y2="300.723" gradientUnits="userSpaceOnUse">
    <stop stop-color="#E9EAFF"/>
    <stop offset="1" stop-color="#8DA5E5"/>
    </linearGradient>
    <linearGradient id="paint16_linear_1_38" x1="886.886" y1="291.687" x2="864.186" y2="279.005" gradientUnits="userSpaceOnUse">
    <stop stop-color="#E9EAFF"/>
    <stop offset="1" stop-color="#BADBFF"/>
    </linearGradient>
    <linearGradient id="paint17_linear_1_38" x1="886.767" y1="298.613" x2="873.883" y2="286.412" gradientUnits="userSpaceOnUse">
    <stop stop-color="#E9EAFF"/>
    <stop offset="1" stop-color="#8DA5E5"/>
    </linearGradient>
    </defs>
</svg>